<?xml version="1.0" encoding="UTF-8"?>
<svg id="_레이어_1" data-name="레이어_1" xmlns="http://www.w3.org/2000/svg" version="1.1" viewBox="0 0 581 113">
  <!-- Generator: Adobe Illustrator 29.5.1, SVG Export Plug-In . SVG Version: 2.1.0 Build 141)  -->
  <defs>
    <style>
      .st0 {
        fill: #fab317;
      }

      .st1 {
        fill: #f38d04;
      }

      .st2 {
        fill: #d7470b;
      }

      .st3 {
        fill: #e88d0d;
      }

      .st4 {
        fill: #54080c;
      }

      .st5 {
        fill: #b82a0d;
      }

      .st6 {
        fill: #cd871e;
      }

      .st7 {
        fill: #ae240e;
      }

      .st8 {
        fill: #89120d;
      }

      .st9 {
        font-family: AppleSDGothicNeo-Heavy-KSCpc-EUC-H, 'Apple SD Gothic Neo';
        font-size: 80px;
        font-weight: 800;
      }

      .st10 {
        fill: #7a0c0c;
      }
    </style>
  </defs>
  <g>
    <path class="st6" d="M64.49,63.69c.67-1.67,1.43-3.39,2.29-5.16-.67,1.67-1.43,3.39-2.29,5.16Z"/>
    <g>
      <path class="st1" d="M57.18,29.87c.63,5.25-1.72,10.83-.16,15.99.57,1.9,2.49,3.58,4.33,2.13,1.73-1.31,3.66-5.76,5.31-1.7,1.31,3.91,1.22,8.37-.31,12.19-.69,1.67-1.59,3.48-3.32,4.23-1.29.56-2.62.07-3.08-1.31-.64-1.61.24-3.72-.33-5.33-.75-1.63-3.55.37-5.24.05-6.21-.93-3.9-12.04-3.94-16.49.1-2.72-.14-5.48-1.05-8.05-.55-1.91-4.16-8.69-6.13-8.52-.38.09-.6.59-.7,1.39-.08.64-.09,1.48-.09,2.35.03,2.23-.06,4.46-.4,6.66-.36,2.43-1.01,4.81-1.94,7.08-1.36,3.43-3.52,6.58-4.57,10.05-.62,1.63-.63,4.3-2.59,4.8-1.05.24-2.49-.03-3.28.72-.91.94-.81,2.45-.59,3.68.31,1.49.96,3.22.75,4.37-.22,1.79-2.19,2.45-3.8,1.84-2.75-1.13-4.04-4.56-4.68-7.28-.73-3.43-.15-7.02-.34-10.48-.02-1.82-.7-3.94-.04-5.65.67-1.42,2.66-.1,3.51.69,1.36,1.14,2.36,2.46,4.01,2.67,3.01.13,4.47-4.11,5.24-6.51,1.75-5.65,1.15-11.58.73-17.38-.42-6,1.79-11.71,5.83-16.01,1.95-2.02,5.19-5.42,7.97-5.38,2.67.4.51,5.12.43,6.93-.18,1.26-.22,2.55-.04,3.82.46,3.97,3.16,6.87,5.32,10,1.65,2.53,2.9,5.37,3.2,8.4v.05Z"/>
      <path class="st3" d="M24.01,28.5c2.34-.55,3.62,3.43,3.56,5.27.05,2.87-2.15,4.32-3.99,1.58-1.21-1.73-1.7-5.77.4-6.84h.03Z"/>
      <path class="st0" d="M58.2,61.65c-1.12.73-2.61.44-3.86.13-2.13-.56-4.28-1.18-6.44-1.74-1.6-.41-3.28-.69-4.92-.47-2.08.25-3.94,1.28-5.83,2.31-3.07,1.81-6.45,3.44-7.96-.92-.49-1.62-.95-4.28.61-5.3,2.17-.84,3.9,1.18,4.85-2.15.28-.94.46-1.98.74-2.94,1.32-4.48,4.31-8.45,5.59-13.03,1.1-3.6,1.53-7.36,1.49-11.13.05-1.33-.33-4.04.58-4.68.35-.19.88.1,1.51.72.76.75,1.61,1.98,2.3,3.02,1.06,1.64,1.96,3.38,2.59,5.23.81,2.37,1.11,4.89,1.06,7.4.04,4.91-1.6,12.13,1.06,16.41,3.09,4.4,7.38-1.29,8.3,1.49.36,1.69-.16,4.59-1.64,5.62l-.03.02Z"/>
    </g>
    <path class="st6" d="M63.81,64.63c.04-.16.16-.36.37-.59-.04.16-.16.36-.37.59Z"/>
    <path class="st6" d="M62.76,65.89c-.16.08-.29.08-.53.07.1-.16.31-.3.61-.44.04.1,0,.2-.08.38Z"/>
    <g>
      <path class="st10" d="M47.93,111.3c-9.64-2.02-19.27-4.05-28.91-6.03-2.66-.55-5.42-.73-7.69-2.66,3.79-7.44,7.49-14.43,11.18-21.8,7.97-.42,15.81-1.85,23.79-2.53,4.55,4.4,9.76,7.6,14.74,11.47-3.01,6.45-6.36,12.74-9.33,19.21-.83,1.77-1.77,2.72-3.77,2.35Z"/>
      <path class="st2" d="M25.2,58.23c5.88-2.52,11.23-7.08,17.38-8.41,2.67,5.75,7.82,10.13,10.64,15.93-2.34,4.27-4.64,8.44-6.93,12.61-7.94.71-15.82,2.45-23.77,2.55-3.47-5.22-7.87-9.7-10.94-15.21,4.53-2.65,8.86-5.16,13.63-7.47Z"/>
      <path class="st8" d="M73.22,60.26"/>
      <path class="st8" d="M46.24,78.34c2.25-4.23,4.53-8.36,6.96-12.62,5.85-2.75,11.71-4.6,17.11-7.92.97.81,2.16,1.47,2.86,2.47,3.81,5.87,8.64,11.69,11.87,17.94-8.11,3.99-15.91,7.98-24.13,11.49-5-3.71-10.16-6.99-14.66-11.36Z"/>
      <path class="st4" d="M60.91,89.71c8.2-3.71,16.02-7.58,24.18-11.51,2.32,4.41-3.75,14.3-4.91,19.34-1.07,3.16-3,5.23-6.18,6.32-7.1,2.41-14.13,5.01-21.25,7.35-1.4.46-3.07.15-4.73.12,1.86.31,2.8-.64,3.62-2.41,2.95-6.47,6.27-12.76,9.26-19.21Z"/>
      <path class="st7" d="M11.57,65.7c3.26,5.38,7.54,9.95,10.95,15.18-3.36,7.66-7.34,14.24-11.18,21.72-3.35-3.62-5.89-7.54-8.57-11.67-1.41-2.15-1.54-4.28-.38-6.65,3.22-6.14,5.36-12.77,9.19-18.59Z"/>
      <path class="st5" d="M70.31,57.79c-5.26,3.56-11.36,5.22-17.16,7.93-3.06-5.55-8.15-10.18-10.56-15.9,9.53,2.4,18.52,4.57,27.73,7.97Z"/>
      <path class="st4" d="M84.85,77.47"/>
    </g>
  </g>
  <text class="st9" transform="translate(120.09 87.47)"><tspan x="0" y="0">FLiNT</tspan></text>
</svg>