<?xml version="1.0" encoding="UTF-8"?>
<svg id="_레이어_1" data-name="레이어_1" xmlns="http://www.w3.org/2000/svg" version="1.1" viewBox="0 0 512 512">
  <!-- Generator: Adobe Illustrator 29.5.1, SVG Export Plug-In . SVG Version: 2.1.0 Build 141)  -->
  <defs>
    <style>
      .st0 {
        fill: #fab317;
      }

      .st1 {
        fill: #f38d04;
      }

      .st2 {
        fill: #d7470b;
      }

      .st3 {
        fill: #e88d0d;
      }

      .st4 {
        fill: #54080c;
      }

      .st5 {
        fill: #b82a0d;
      }

      .st6 {
        fill: #cd871e;
      }

      .st7 {
        fill: #ae240e;
      }

      .st8 {
        fill: #89120d;
      }

      .st9 {
        fill: #7a0c0c;
      }
    </style>
  </defs>
  <path class="st6" d="M351.19,290.75c3.04-7.59,6.53-15.44,10.45-23.52-3.05,7.6-6.52,15.43-10.45,23.52Z"/>
  <g>
    <path class="st1" d="M317.88,136.63c2.88,23.91-7.84,49.34-.73,72.86,2.58,8.68,11.34,16.3,19.73,9.69,7.89-5.96,16.68-26.25,24.18-7.77,5.95,17.83,5.57,38.13-1.39,55.57-3.14,7.62-7.24,15.84-15.13,19.29-5.87,2.55-11.94.33-14.06-5.99-2.93-7.33,1.08-16.95-1.51-24.3-3.44-7.45-16.18,1.67-23.87.23-28.29-4.23-17.79-54.86-17.97-75.14.45-12.38-.65-24.95-4.79-36.69-2.49-8.71-18.94-39.58-27.93-38.83-1.71.43-2.72,2.69-3.19,6.32-.38,2.93-.42,6.74-.39,10.72.15,10.17-.28,20.32-1.82,30.34-1.66,11.05-4.59,21.9-8.83,32.26-6.22,15.64-16.05,29.98-20.84,45.82-2.83,7.44-2.86,19.58-11.82,21.88-4.77,1.08-11.36-.12-14.96,3.29-4.14,4.28-3.68,11.17-2.69,16.77,1.41,6.77,4.39,14.7,3.41,19.92-1,8.15-9.98,11.19-17.33,8.38-12.53-5.14-18.42-20.77-21.31-33.19-3.35-15.63-.68-31.99-1.56-47.75-.09-8.3-3.18-17.95-.2-25.74,3.07-6.48,12.11-.46,16.01,3.17,6.2,5.18,10.76,11.2,18.27,12.16,13.74.6,20.35-18.72,23.88-29.68,7.99-25.75,5.23-52.76,3.31-79.19-1.89-27.36,8.17-53.36,26.55-72.95,8.88-9.22,23.64-24.69,36.33-24.53,12.18,1.84,2.31,23.35,1.96,31.6-.83,5.76-.98,11.63-.18,17.39,2.1,18.07,14.4,31.3,24.26,45.56,7.51,11.53,13.21,24.48,14.6,38.28l.02.22Z"/>
    <path class="st3" d="M166.69,130.38c10.68-2.51,16.49,15.61,16.21,24.01.24,13.09-9.8,19.68-18.2,7.22-5.53-7.88-7.76-26.32,1.84-31.17l.15-.06Z"/>
    <path class="st0" d="M322.54,281.45c-5.1,3.32-11.9,2-17.59.59-9.72-2.56-19.5-5.39-29.37-7.95-7.31-1.85-14.95-3.16-22.43-2.16-9.46,1.15-17.96,5.84-26.56,10.53-14,8.25-29.4,15.67-36.27-4.19-2.24-7.38-4.34-19.5,2.77-24.17,9.91-3.83,17.78,5.4,22.08-9.81,1.26-4.28,2.08-9.04,3.38-13.38,6.02-20.43,19.66-38.53,25.47-59.36,5.03-16.42,6.97-33.54,6.78-50.72.24-6.04-1.5-18.39,2.65-21.33,1.6-.85,4.03.44,6.88,3.3,3.45,3.42,7.36,9,10.47,13.78,4.85,7.47,8.94,15.42,11.79,23.85,3.71,10.8,5.04,22.3,4.84,33.71.2,22.4-7.28,55.3,4.84,74.8,14.09,20.03,33.64-5.89,37.84,6.81,1.66,7.71-.73,20.94-7.45,25.61l-.14.09Z"/>
  </g>
  <path class="st6" d="M348.1,295.03c.18-.75.74-1.64,1.68-2.69-.18.74-.74,1.65-1.68,2.69Z"/>
  <path class="st6" d="M343.32,300.78c-.71.37-1.34.37-2.43.3.47-.72,1.41-1.37,2.79-2.01.2.45-.04.9-.37,1.71Z"/>
  <g>
    <path class="st9" d="M275.74,507.73c-43.92-9.18-87.82-18.46-131.77-27.5-12.12-2.49-24.68-3.35-35.05-12.13,17.29-33.9,34.11-65.74,50.94-99.37,36.32-1.89,72.07-8.44,108.41-11.52,20.72,20.04,44.47,34.65,67.17,52.27-13.71,29.39-28.98,58.05-42.53,87.54-3.78,8.08-8.08,12.41-17.17,10.71Z"/>
    <path class="st2" d="M172.12,265.86c26.81-11.48,51.17-32.25,79.21-38.33,12.18,26.18,35.65,46.16,48.5,72.62-10.66,19.48-21.13,38.46-31.6,57.45-36.18,3.22-72.11,11.17-108.35,11.63-15.83-23.78-35.85-44.19-49.88-69.31,20.66-12.07,40.36-23.5,62.12-34.06Z"/>
    <path class="st8" d="M390.97,275.12"/>
    <path class="st8" d="M268.02,357.49c10.26-19.29,20.65-38.08,31.7-57.53,26.67-12.53,53.36-20.98,77.98-36.09,4.4,3.71,9.83,6.7,13.03,11.26,17.35,26.77,39.37,53.27,54.09,81.76-36.96,18.21-72.51,36.35-109.99,52.38-22.77-16.92-46.3-31.85-66.81-51.77Z"/>
    <path class="st4" d="M334.86,409.33c37.37-16.9,73.01-34.53,110.2-52.45,10.57,20.08-17.08,65.16-22.36,88.12-4.86,14.39-13.65,23.85-28.18,28.78-32.34,10.97-64.39,22.82-96.83,33.52-6.4,2.11-13.98.66-21.55.56,8.48,1.42,12.75-2.92,16.5-11,13.45-29.48,28.6-58.14,42.21-87.54Z"/>
    <path class="st7" d="M110,299.92c14.84,24.54,34.35,45.33,49.88,69.2-15.31,34.91-33.45,64.9-50.96,98.99-15.27-16.51-26.83-34.35-39.08-53.17-6.41-9.79-7-19.49-1.72-30.3,14.66-28,24.42-58.22,41.88-84.71Z"/>
    <path class="st5" d="M377.69,263.87c-23.97,16.23-51.76,23.79-78.22,36.12-13.93-25.32-37.13-46.41-48.15-72.45,43.45,10.95,84.41,20.84,126.37,36.33Z"/>
    <path class="st4" d="M444,353.54"/>
  </g>
</svg>